<?xml version="1.0" encoding="UTF-8"?>
<svg version="1.1" xmlns="http://www.w3.org/2000/svg" width="192" height="192">
<path d="M0 0 C63.36 0 126.72 0 192 0 C192 63.36 192 126.72 192 192 C128.64 192 65.28 192 0 192 C0 128.64 0 65.28 0 0 Z " fill="#FDFDFD" transform="translate(0,0)"/>
<path d="M0 0 C2.9072878 2.09761084 5.68063973 4.33435093 8.40625 6.6640625 C8.06393314 9.56401512 7.78408874 11.24721995 5.7956543 13.44091797 C5.11414307 13.96572754 4.43263184 14.49053711 3.73046875 15.03125 C2.98474609 15.60617188 2.23902344 16.18109375 1.47070312 16.7734375 C0.29411133 17.64742187 0.29411133 17.64742187 -0.90625 18.5390625 C-1.67904297 19.14492187 -2.45183594 19.75078125 -3.24804688 20.375 C-9.01702148 24.74017425 -9.01702148 24.74017425 -11.72119141 24.38330078 C-13.77829037 23.59318167 -15.70424234 22.68708 -17.65625 21.6640625 C-24.563202 18.05812979 -32.47777446 17.09429576 -40.05078125 19.41796875 C-42.01847128 20.37735872 -43.78909125 21.42793586 -45.59375 22.6640625 C-46.480625 23.2209375 -47.3675 23.7778125 -48.28125 24.3515625 C-54.07119654 30.14150904 -56.67373942 37.10382386 -57.03125 45.1640625 C-56.94241975 53.24761555 -53.9503632 59.7687336 -48.6953125 65.8671875 C-42.31411696 71.87005129 -35.8530653 74.22132177 -27.1328125 73.96484375 C-23.13319441 73.49104284 -17.55612864 72.62644114 -14.59375 69.6640625 C-11.5570614 69.14560347 -9.42987053 69.17222689 -6.734375 70.7578125 C-4.6352635 72.33634435 -2.61408326 73.98591181 -0.59375 75.6640625 C1.06956065 76.96004793 2.73619341 78.25178183 4.40625 79.5390625 C5.74012971 80.58002943 7.07366527 81.62143833 8.40625 82.6640625 C8.03760759 85.22255089 7.68268236 86.40732841 5.76171875 88.19140625 C-8.55820497 97.50580709 -23.38944393 100.98846845 -40.27734375 98.015625 C-54.84847227 93.92241483 -66.4187112 84.75880621 -73.96875 71.7265625 C-80.92862654 58.9906106 -83.31632088 44.45504005 -79.46875 30.1640625 C-78.89817441 28.64252759 -78.2708139 27.14129284 -77.59375 25.6640625 C-77.1915625 24.7771875 -76.789375 23.8903125 -76.375 22.9765625 C-69.36886489 8.96429228 -58.45384432 -0.04189977 -43.96875 -5.8359375 C-29.57091576 -10.07730743 -12.51491484 -8.50495031 0 0 Z " fill="#05A2FB" transform="translate(127.59375,48.3359375)"/>
<path d="M0 0 C1.23943204 3.71829613 0.44660317 4.48165444 -1 8 C-2.38890013 17.20146336 -0.18147934 24.3710985 5 32 C10.01197162 37.81636213 15.74936717 41.39579428 23.41015625 42.27734375 C29.37349113 42.50776627 34.5394372 41.40065745 40 39 C40.33 38.67 40.66 38.34 41 38 C44.0366886 37.48154097 46.16387947 37.50816439 48.859375 39.09375 C50.9584865 40.67228185 52.97966674 42.32184931 55 44 C56.66331065 45.29598543 58.32994341 46.58771933 60 47.875 C61.33387971 48.91596693 62.66741527 49.95737583 64 51 C63.63135759 53.55848839 63.27643236 54.74326591 61.35546875 56.52734375 C47.07652833 65.81508698 32.05912675 69.47719518 15.2109375 66.28125 C12.03609647 65.35928211 9.04346834 64.28712452 6 63 C5.24332031 62.70738281 4.48664063 62.41476563 3.70703125 62.11328125 C-3.9354614 58.37333804 -7.92889481 49.20343784 -10.9453125 41.625 C-14.32912441 29.80548796 -11.0217224 18.32793214 -5.6328125 7.76171875 C-3.96862773 4.94693734 -2.10313112 2.49917529 0 0 Z " fill="#032371" transform="translate(72,80)"/>
<path d="M0 0 C1.51980469 0.02030273 1.51980469 0.02030273 3.0703125 0.04101562 C5.54744404 0.07606937 8.02342927 0.12520236 10.5 0.1875 C8.18635707 1.72992862 6.11395515 2.8906573 3.625 4.0625 C-2.02547187 6.87218418 -5.31009376 9.73807684 -8.5 15.1875 C-10.16666667 16.85416667 -11.83333333 18.52083333 -13.5 20.1875 C-18.02734405 26.52578167 -20.93692053 34.44515734 -21.5 42.1875 C-21.5515625 42.87328125 -21.603125 43.5590625 -21.65625 44.265625 C-22.1002272 54.84708158 -17.74915894 63.2520385 -12.5 72.1875 C-23.35548911 67.28811996 -28.80070954 55.9696194 -33.66796875 45.73046875 C-37.39199902 35.74727022 -37.14294767 21.1588311 -33.5 11.1875 C-31.14453125 9.87109375 -31.14453125 9.87109375 -28.5 9.1875 C-26.30026029 7.76971444 -24.19495252 6.25538621 -22.07421875 4.72265625 C-14.63916114 0.28869928 -8.48649999 -0.21717421 0 0 Z " fill="#0346E6" transform="translate(82.5,64.8125)"/>
<path d="M0 0 C4.07464646 0.44542111 6.8138966 1.88935551 10.23046875 4.08984375 C11.19791016 4.70923828 12.16535156 5.32863281 13.16210938 5.96679688 C14.65967773 6.94229492 14.65967773 6.94229492 16.1875 7.9375 C17.19748047 8.58396484 18.20746094 9.23042969 19.24804688 9.89648438 C26.69055451 14.69055451 26.69055451 14.69055451 29 17 C28.83227539 18.98852539 28.83227539 18.98852539 28 21 C25.49237472 22.65107483 23.08832837 24.06023912 20.4375 25.4375 C18.97037798 26.22344088 17.50421962 27.01118345 16.0390625 27.80078125 C15.3368457 28.1767041 14.63462891 28.55262695 13.91113281 28.93994141 C11.62073161 30.21037089 9.46823265 31.63929236 7.3125 33.125 C4 35 4 35 1 34.8125 C0.34 34.544375 -0.32 34.27625 -1 34 C-1.8125 32 -1.8125 32 -2 29 C-0.953125 27.1328125 -0.953125 27.1328125 0.4375 25.125 C3.05747568 21.20604479 3.85637169 18.79568145 3 14 C1.7822997 11.87411519 0.44087171 9.87989135 -0.94921875 7.86328125 C-2 6 -2 6 -1.875 3.0625 C-1 1 -1 1 0 0 Z " fill="#098FE8" transform="translate(110,78)"/>
<path d="M0 0 C1.2077558 3.62326739 0.54311128 4.64146369 -1 8 C-1.66 8 -2.32 8 -3 8 C-4.37310707 9.29233607 -5.71034824 10.62437146 -7 12 C-5.44298069 7.32894208 -2.91552627 3.91294315 0 0 Z " fill="#0D328A" transform="translate(72,80)"/>
<path d="M0 0 C0.66 0.33 1.32 0.66 2 1 C0.71034824 2.37562854 -0.62689293 3.70766393 -2 5 C-2.66 5 -3.32 5 -4 5 C-4.12375 5.639375 -4.2475 6.27875 -4.375 6.9375 C-4.58125 7.618125 -4.7875 8.29875 -5 9 C-5.99 9.495 -5.99 9.495 -7 10 C-6.67 7.69 -6.34 5.38 -6 3 C-5.195625 2.690625 -4.39125 2.38125 -3.5625 2.0625 C-1.10919595 1.23664655 -1.10919595 1.23664655 0 0 Z " fill="#166EF4" transform="translate(55,73)"/>
<path d="M0 0 C0.66 0.33 1.32 0.66 2 1 C-0.97 3.97 -3.94 6.94 -7 10 C-7 6.04435836 -5.59478606 4.89133304 -3 2 C-2.01 1.34 -1.02 0.68 0 0 Z " fill="#D3DFF5" transform="translate(82,70)"/>
</svg>
